<?xml version="1.0" standalone="no"?>
<!DOCTYPE svg PUBLIC "-//W3C//DTD SVG 20010904//EN"
 "http://www.w3.org/TR/2001/REC-SVG-20010904/DTD/svg10.dtd">
<svg version="1.0" xmlns="http://www.w3.org/2000/svg"
 width="512.000000pt" height="512.000000pt" viewBox="0 0 512.000000 512.000000"
 preserveAspectRatio="xMidYMid meet">

<g transform="translate(0.000000,512.000000) scale(0.100000,-0.100000)"
fill="#000000" stroke="none">
<path d="M640 5107 c-49 -16 -133 -102 -148 -153 -9 -32 -12 -577 -12 -2400
l0 -2359 24 -50 c28 -60 66 -97 126 -124 45 -20 55 -21 1924 -21 1446 0 1888
3 1920 12 55 16 138 99 154 154 9 32 12 577 12 2400 0 2352 -1 2359 -21 2404
-27 60 -64 98 -124 126 l-50 24 -1885 -1 c-1344 -1 -1895 -4 -1920 -12z m3801
-160 c9 -7 21 -22 27 -34 17 -31 17 -4675 0 -4706 -6 -12 -18 -27 -27 -34 -22
-17 -3718 -19 -3754 -2 -14 6 -30 22 -36 36 -16 34 -16 4672 0 4707 6 13 21
29 33 34 33 16 3736 15 3757 -1z"/>
<path d="M1185 4376 c-125 -59 -177 -192 -121 -312 57 -123 193 -176 311 -120
191 90 191 344 1 432 -66 31 -127 31 -191 0z m142 -156 c29 -27 37 -56 23 -90
-25 -61 -115 -61 -140 1 -31 73 60 142 117 89z"/>
<path d="M1706 4214 c-15 -16 -26 -38 -26 -54 0 -16 11 -38 26 -54 l27 -26
1147 0 1147 0 27 26 c28 29 32 53 14 87 -25 48 24 46 -1189 47 l-1146 0 -27
-26z"/>
<path d="M1185 3576 c-191 -90 -191 -342 0 -432 94 -44 183 -27 260 51 78 77
95 166 51 260 -59 125 -193 177 -311 121z m136 -149 c44 -34 47 -89 7 -127
-57 -53 -149 15 -119 89 19 44 77 65 112 38z"/>
<path d="M1706 3414 c-15 -16 -26 -38 -26 -54 0 -16 11 -38 26 -54 l27 -26
1146 0 c1139 0 1147 0 1169 20 40 38 37 93 -7 127 -12 10 -277 12 -1162 13
l-1146 0 -27 -26z"/>
<path d="M1185 2776 c-191 -90 -191 -342 0 -432 94 -44 183 -27 260 51 78 77
95 166 51 260 -59 125 -193 177 -311 121z m136 -149 c44 -34 47 -89 7 -127
-57 -53 -149 15 -119 89 19 44 77 65 112 38z"/>
<path d="M1706 2614 c-15 -16 -26 -38 -26 -54 0 -16 11 -38 26 -54 l27 -26
1146 0 c1139 0 1147 0 1169 20 40 38 37 93 -7 127 -12 10 -277 12 -1162 13
l-1146 0 -27 -26z"/>
<path d="M1200 1987 c-49 -16 -133 -102 -148 -153 -25 -85 -4 -173 56 -238 38
-40 118 -76 172 -76 54 0 134 36 172 76 68 73 85 173 44 259 -54 115 -176 170
-296 132z m121 -160 c44 -34 47 -89 7 -127 -57 -53 -149 15 -119 89 19 44 77
65 112 38z"/>
<path d="M1706 1814 c-15 -16 -26 -38 -26 -54 0 -16 11 -38 26 -54 l27 -26
1146 0 c1139 0 1147 0 1169 20 40 38 37 93 -7 127 -12 10 -277 12 -1162 13
l-1146 0 -27 -26z"/>
<path d="M1200 1187 c-49 -16 -133 -102 -148 -153 -25 -85 -4 -173 56 -238 38
-40 118 -76 172 -76 54 0 134 36 172 76 68 73 85 173 44 259 -54 115 -176 170
-296 132z m121 -160 c44 -34 47 -89 7 -127 -57 -53 -149 15 -119 89 19 44 77
65 112 38z"/>
<path d="M1706 1014 c-15 -16 -26 -38 -26 -54 0 -16 11 -38 26 -54 l27 -26
666 0 c656 0 668 0 689 20 40 38 37 93 -7 127 -12 9 -174 12 -682 13 l-666 0
-27 -26z"/>
<path d="M3323 1028 c-55 -27 -50 -114 8 -138 89 -37 151 99 63 139 -30 13
-42 13 -71 -1z"/>
<path d="M3645 1028 c-51 -30 -59 -81 -19 -122 15 -14 35 -26 45 -26 64 0 112
75 76 121 -14 19 -50 39 -69 39 -7 0 -22 -6 -33 -12z"/>
<path d="M3963 1028 c-55 -27 -50 -114 8 -138 89 -37 151 99 63 139 -30 13
-42 13 -71 -1z"/>
</g>
</svg>
